<svg id="visual" viewBox="0 0 900 600" width="900" height="600" xmlns="http://www.w3.org/2000/svg" xmlns:xlink="http://www.w3.org/1999/xlink" version="1.1"><rect x="0" y="0" width="900" height="600" fill="#ffffff"></rect><path d="M0 57L21.5 55.5C43 54 86 51 128.8 54.2C171.7 57.3 214.3 66.7 257.2 66.8C300 67 343 58 385.8 59.5C428.7 61 471.3 73 514.2 76.5C557 80 600 75 642.8 68.7C685.7 62.3 728.3 54.7 771.2 54.8C814 55 857 63 878.5 67L900 71L900 0L878.5 0C857 0 814 0 771.2 0C728.3 0 685.7 0 642.8 0C600 0 557 0 514.2 0C471.3 0 428.7 0 385.8 0C343 0 300 0 257.2 0C214.3 0 171.7 0 128.8 0C86 0 43 0 21.5 0L0 0Z" fill="#efe7ef" stroke-linecap="round" stroke-linejoin="miter"></path></svg>